<?xml version="1.0" encoding="UTF-8"?>
<svg id="Layer_2" data-name="Layer 2" xmlns="http://www.w3.org/2000/svg" viewBox="0 0 56.13 46.08">
  <defs>
    <style>
      .cls-1 {
        fill: #010101;
      }
    </style>
  </defs>
  <g id="Layer_1-2" data-name="Layer 1">
    <path d="m0,41.47c3.69-.34,7.11-.82,10.38-1.89,2.05-.67,4.03-1.62,5.71-3.35-.55-.18-1.03-.38-1.53-.48-2.77-.58-5.26-1.64-7-4-.72-.98-1.33-2.03-2.03-3.1,1.23-.3,2.43-.59,3.81-.93-.91-.56-1.7-1.08-2.52-1.53-2.08-1.13-3.73-2.68-4.6-4.91-.37-.95-.52-1.98-.77-2.98-.11-.43-.19-.86-.3-1.33,1.42.02,2.71.63,4.2.28-.72-1.12-1.37-2.17-2.06-3.2-1.78-2.65-2.05-5.51-1.29-8.54.23-.91.43-1.84.69-2.95.78.63,1.4,1.05,1.94,1.56,2.42,2.28,5.16,4.11,8.01,5.83,2.36,1.43,4.89,2.38,7.49,3.17,1.99.61,4.06.96,6.33.91.02-.67.06-1.3.07-1.92.05-2.38.81-4.54,1.99-6.57,1.71-2.92,4.43-4.39,7.56-5.26,1.39-.39,2.76-.3,4.22-.14,2.64.29,4.8,1.52,6.96,2.82.49.3.86.38,1.4.19,1.21-.43,2.43-.83,3.67-1.19.49-.15,1.02-.18,1.84-.31-1.11,1.79-2.05,3.3-3,4.82,1.65.08,3.16-.84,4.97-.57-.86,1.35-1.83,2.42-2.78,3.52-.78.91-1.81,1.7-2.04,2.98-.25,1.43-.63,2.83-.75,4.31-.14,1.7-.6,3.37-.96,5.05-.14.64-.37,1.25-.58,1.87-1.35,3.9-3.27,7.44-5.93,10.64-2.96,3.55-6.42,6.42-10.55,8.47-2.84,1.4-5.83,2.42-8.95,2.97-2.6.45-5.24.39-7.87.33-2.95-.07-5.78-.69-8.6-1.52-2.27-.67-4.39-1.61-6.51-2.61-.14-.07-.26-.18-.61-.44Z"/>
  </g>
</svg>