<?xml version="1.0" encoding="UTF-8"?>
<svg id="Layer_2" data-name="Layer 2" xmlns="http://www.w3.org/2000/svg" viewBox="0 0 51.1 36.69">
  <g id="Layer_1-2" data-name="Layer 1">
    <path d="m26.22,36.56c-4.74,0-9.49,0-14.23,0-3.93,0-7.19-1.49-9.63-4.58-1.02-1.29-1.66-2.82-2.03-4.45-.28-1.25-.28-2.52-.29-3.78C.03,19.98,0,16.21,0,12.44c0-1.06,0-2.13.18-3.17.2-1.09.59-2.15,1.16-3.13C2.75,3.73,4.77,1.97,7.28.79c.85-.4,1.78-.61,2.74-.63,2.02-.04,4.04-.21,6.06-.14,7.73.27,15.47.02,23.2.14,1.97.03,3.89.43,5.62,1.33,2.23,1.16,3.98,2.81,4.91,5.25.52,1.36.76,2.72.93,4.16.56,4.65.3,9.32.27,13.98-.02,2.7-.92,5.16-2.63,7.27-1.73,2.15-3.95,3.62-6.68,4.08-1.8.31-3.64.39-5.47.43-3.34.06-6.68.02-10.02.02,0-.04,0-.07,0-.11Zm7.94-18.51c-4.62-2.62-9.12-5.17-13.62-7.71-.12-.07-.29-.07-.4-.1v16.33c4.78-2.84,9.41-5.56,14.03-8.52Z"/>
  </g>
</svg>