<?xml version="1.0" encoding="UTF-8"?>
<svg id="Layer_2" data-name="Layer 2" xmlns="http://www.w3.org/2000/svg" viewBox="0 0 47.26 53.87">
  <defs>
    <style>
      .cls-1 {
        fill: #010101;
      }
    </style>
  </defs>
  <g id="Layer_1-2" data-name="Layer 1">
    <path class="cls-1" d="m34.27,18.6c0,4.82,0,9.64.03,14.47.01,2.53-.24,5.01-.67,7.5-.68,3.88-2.69,6.84-5.66,9.33-2.21,1.86-4.72,2.98-7.48,3.6-1.02.23-2.09.29-3.14.34-3.54.18-6.73-.93-9.64-2.84-2.68-1.76-4.74-4.12-6.12-7.05-.74-1.58-1.16-3.26-1.51-4.94-.2-.98,0-2.04-.02-3.06-.07-3.01,1.1-5.62,2.62-8.11,2.19-3.6,5.35-5.98,9.35-7.26,1.24-.4,2.51-.7,3.84-.66.33.01.66-.13.99-.14.83-.02,1.65,0,2.58,0v9.31c-.27,0-.55-.01-.84,0-1.06.05-2.13.05-3.18.18-2.4.29-3.92,1.83-5.15,3.74-1.77,2.78-.84,7.04,1.38,9.35,2.28,2.38,6.05,2.67,8.72,1.48.6-.27,1.18-.6,1.73-.98,1.45-1.01,2.12-2.51,2.39-4.17.62-3.94.33-7.92.36-11.89.05-7.97,0-15.95,0-23.92,0-.87,0-1.74,0-2.72,3.08-.25,6.11-.14,9.16-.19.91,7.84,5.41,12.08,13.22,13.34-.07,2.84.22,5.85-.25,8.97-4.44-.24-8.48-1.55-12.25-3.76-.11-.11-.22-.22-.33-.33-.05.13-.09.25-.14.38Z"/>
  </g>
</svg>